<svg xmlns="http://www.w3.org/2000/svg" version="1.1" xmlns:xlink="http://www.w3.org/1999/xlink" xmlns:svgjs="http://svgjs.dev/svgjs" width="1000" height="207" viewBox="0 0 1000 207"><g transform="matrix(1,0,0,1,-0.6060606060606233,0.07438711327023384)"><svg viewBox="0 0 396 82" data-background-color="#ffffff" preserveAspectRatio="xMidYMid meet" height="207" width="1000" xmlns="http://www.w3.org/2000/svg" xmlns:xlink="http://www.w3.org/1999/xlink"><g id="tight-bounds" transform="matrix(1,0,0,1,0.2400000000000091,-0.029467358879998073)"><svg viewBox="0 0 395.52 82.05893471776" height="82.05893471776" width="395.52"><g><svg viewBox="0 0 511.7143390301345 106.16589184014846" height="82.05893471776" width="395.52"><g transform="matrix(1,0,0,1,0,14.672710087893172)"><svg viewBox="0 0 395.52 76.82047166436212" height="76.82047166436212" width="395.52"><g id="textblocktransform"><svg viewBox="0 0 395.52 76.82047166436212" height="76.82047166436212" width="395.52" id="textblock"><g><svg viewBox="0 0 395.52 42.47974038015762" height="42.47974038015762" width="395.52"><g transform="matrix(1,0,0,1,0,0)"><svg width="395.52" viewBox="3.8499999046325684 -34.349998474121094 323.5199890136719 34.75" height="42.47974038015762" data-palette-color="#000000"><path d="M7.95-30.1L7.95-3.55 14-3.55Q20.25-3.55 23.45-7.43 26.65-11.3 26.65-17.1L26.65-17.1Q26.65-22.6 23.08-26.35 19.5-30.1 13.8-30.1L13.8-30.1 7.95-30.1ZM3.85 0L3.85-33.7 13.85-33.7Q21.3-33.7 26.08-29.08 30.85-24.45 30.85-17.1L30.85-17.1Q30.85-9.8 26.43-4.9 22 0 14.05 0L14.05 0 3.85 0ZM43.95-14.2L43.3-12.3 55.25-12.3 54.6-14.25 49.35-30.45Q48.75-28.3 43.95-14.2L43.95-14.2ZM63.7 0L59.35 0 56.4-8.85 42.15-8.85 39.15 0 34.8 0 46.55-33.7 52.15-33.7 63.7 0ZM78-30.2L73.35-30.2 73.35-16.75 78.45-16.75Q81.9-16.75 83.72-18.63 85.55-20.5 85.55-23.45L85.55-23.45Q85.55-30.2 78-30.2L78-30.2ZM82.85-13.95L91.7 0 86.85 0 78.6-13.3 78.2-13.3 73.35-13.3 73.35 0 69.3 0 69.3-33.7 77.75-33.7Q83.6-33.7 86.62-30.95 89.65-28.2 89.65-23.35L89.65-23.35Q89.55-19.85 87.8-17.4 86.05-14.95 82.85-13.95L82.85-13.95ZM100.74 0L96.69 0 96.69-33.7 101.79-33.7 110.24-19.5 118.79-4.9Q118.59-9.75 118.59-19.45L118.59-19.45 118.59-33.7 122.64-33.7 122.64 0 117.54 0 109.09-14.1Q106.54-18.35 104.39-22.03 102.24-25.7 101.34-27.3L101.34-27.3 100.49-28.85Q100.74-23.65 100.74-14.2L100.74-14.2 100.74 0ZM134.39-15.05L134.39-3.55 149.14-3.55 149.14 0 130.34 0 130.34-33.7 148.89-33.7 148.89-30.15 134.39-30.15 134.39-18.6 147.19-18.6 147.19-15.05 134.39-15.05ZM159.44-33.7L159.44-3.65 173.79-3.65 173.79 0 155.39 0 155.39-33.7 159.44-33.7ZM183.29-33.7L183.29-3.65 197.64-3.65 197.64 0 179.24 0 179.24-33.7 183.29-33.7ZM219.33 0L215.28 0 215.28-33.7 220.38-33.7 228.83-19.5 237.38-4.9Q237.18-9.75 237.18-19.45L237.18-19.45 237.18-33.7 241.23-33.7 241.23 0 236.13 0 227.68-14.1Q225.13-18.35 222.98-22.03 220.83-25.7 219.93-27.3L219.93-27.3 219.08-28.85Q219.33-23.65 219.33-14.2L219.33-14.2 219.33 0ZM247.48-17L247.48-17Q247.48-24.95 251.55-29.65 255.63-34.35 262.58-34.35L262.58-34.35Q269.68-34.35 273.7-29.68 277.73-25 277.73-17L277.73-17Q277.73-9.05 273.65-4.33 269.58 0.4 262.63 0.4L262.63 0.4Q255.78 0.4 251.63-4.35 247.48-9.1 247.48-17ZM251.73-17L251.73-17Q251.73-10.75 254.7-7.1 257.68-3.45 262.63-3.45L262.63-3.45Q267.78-3.45 270.6-7.05 273.43-10.65 273.43-17 273.43-23.35 270.58-26.95 267.73-30.55 262.58-30.55L262.58-30.55Q257.48-30.55 254.6-26.93 251.73-23.3 251.73-17ZM287.97-15.05L287.97-3.55 302.72-3.55 302.72 0 283.93 0 283.93-33.7 302.47-33.7 302.47-30.15 287.97-30.15 287.97-18.6 300.77-18.6 300.77-15.05 287.97-15.05ZM313.02-33.7L313.02-3.65 327.37-3.65 327.37 0 308.97 0 308.97-33.7 313.02-33.7Z" opacity="1" transform="matrix(1,0,0,1,0,0)" fill="#000000" class="wordmark-text-0" data-fill-palette-color="primary" id="text-0"></path></svg></g></svg></g><g transform="matrix(1,0,0,1,163.31020799999996,52.50818757014371)"><svg viewBox="0 0 232.20979200000002 24.312284094218413" height="24.312284094218413" width="232.20979200000002"><g transform="matrix(1,0,0,1,0,0)"><svg width="232.20979200000002" viewBox="2.049999952316284 -36.45000076293945 443.6100158691406 46.45000076293945" height="24.312284094218413" data-palette-color="#89939e"><path d="M14.55 0.5L14.55 0.5Q11 0.5 8.15-0.88 5.3-2.25 3.68-4.67 2.05-7.1 2.05-10.2L2.05-10.2Q2.05-11.4 2.83-12.13 3.6-12.85 4.65-12.85L4.65-12.85Q5.45-12.85 6.1-12.35 6.75-11.85 6.9-10.85L6.9-10.85Q7.6-4.4 15.2-4.4L15.2-4.4Q18.85-4.4 20.95-6 23.05-7.6 23.05-10.1L23.05-10.1Q23.05-11.6 21.6-12.63 20.15-13.65 17.65-14.45L17.65-14.45 16.1-15Q11.15-16.65 9-17.7L9-17.7Q5.9-19.25 4.38-21.35 2.85-23.45 2.85-26.3L2.85-26.3Q2.85-28.8 4.45-31.1 6.05-33.4 8.93-34.83 11.8-36.25 15.35-36.25L15.35-36.25Q19.05-36.25 21.95-34.9 24.85-33.55 26.45-31.3 28.05-29.05 28.05-26.5L28.05-26.5Q28.05-25.2 27.33-24.48 26.6-23.75 25.55-23.75L25.55-23.75Q24.55-23.75 23.85-24.48 23.15-25.2 23.15-26.4L23.15-26.4Q23.15-27.65 22.08-28.83 21-30 19.18-30.73 17.35-31.45 15.2-31.45L15.2-31.45Q11.5-31.45 9.7-30.18 7.9-28.9 7.8-26.65L7.8-26.65Q7.75-25.45 8.55-24.55 9.35-23.65 11.05-22.7L11.05-22.7Q12.65-21.85 14.45-21.13 16.25-20.4 19.25-19.4L19.25-19.4Q23.25-18.05 25.63-15.88 28-13.7 28-10.25L28-10.25Q28-7.05 26.1-4.6 24.2-2.15 21.13-0.83 18.05 0.5 14.55 0.5L14.55 0.5ZM47.1-0.35L47.1-0.35Q40.5 1.25 36.55-3L36.55-3Q33.4-6.25 32.65-11.35L32.65-11.35Q32.1-15.35 33.6-18.95L33.6-18.95Q35.4-23.55 39.3-25.75L39.3-25.75Q40.1-26.2 41.3-26.4L41.3-26.4Q41.35-26.4 42-26.45L42-26.45Q42.25-26.5 42.4-26.55L42.4-26.55Q43.15-26.7 43.9-26.4L43.9-26.4Q44.1-26.4 44.85-26.38 45.6-26.35 45.85-26.33 46.1-26.3 46.72-26.23 47.35-26.15 47.75-26.05L47.75-26.05 48.7-25.7Q49.3-25.5 49.85-25.2 50.4-24.9 51.05-24.5L51.05-24.5Q54.3-22.3 55.55-18.32 56.8-14.35 56.2-11.9L56.2-11.9Q55.75-9.2 54.6-6.88 53.45-4.55 51.42-2.75 49.4-0.95 47.1-0.35L47.1-0.35ZM45.55-5.55L45.55-5.55Q47.7-5.85 49.22-7.78 50.75-9.7 51.22-11.85 51.7-14 50.87-16.57 50.05-19.15 48.25-20.3L48.25-20.3Q47.7-20.7 47.35-20.88 47-21.05 46.52-21.18 46.05-21.3 45.77-21.3 45.5-21.3 44.6-21.35 43.7-21.4 43-21.45L43-21.45Q42.85-21.45 42.65-21.5L42.65-21.5Q42.1-21.45 42.05-21.45L42.05-21.45 41.7-21.35Q39.5-20.15 38.32-17.53 37.15-14.9 37.65-12.1L37.65-12.1Q38.2-8.7 40.1-6.95L40.1-6.95Q42.15-5.05 45.55-5.55L45.55-5.55ZM65.09 0L65.09 0Q64.19 0 63.55-0.55 62.9-1.1 62.8-2.15L62.8-2.15Q61.99-8.7 61.9-17.15L61.9-17.15 61.84-20.9 61.45-20.9Q60.2-20.9 59.52-21.63 58.84-22.35 58.84-23.45L58.84-23.45Q58.84-24.45 59.45-25.23 60.05-26 61.15-26L61.15-26 62.05-26Q62.05-28.95 62.92-31.68 63.8-34.4 65.5-35.35L65.5-35.35Q67.19-36.25 68.69-36.25L68.69-36.25Q70.8-36.25 72.05-35.5 73.3-34.75 73.3-33.35L73.3-33.35Q73.3-32.2 72.75-31.5 72.19-30.8 71.19-30.8L71.19-30.8Q70.89-30.8 70.62-30.85 70.34-30.9 70.09-30.95L70.09-30.95Q69.39-31.15 68.64-31.15L68.64-31.15Q67.8-31.15 67.5-29.78 67.19-28.4 67.05-26L67.05-26 69.19-26Q70.34-26 71.02-25.25 71.69-24.5 71.69-23.5L71.69-23.5Q71.69-22.5 71.02-21.75 70.34-21 69.19-21L69.19-21 66.84-21 66.89-17.2Q67.34-6.1 67.69-3.05L67.69-3.05Q67.84-1.4 67.05-0.7 66.25 0 65.09 0L65.09 0ZM85.44-0.15L85.44-0.15Q85.14-0.25 84.22-0.45 83.29-0.65 82.62-0.9 81.94-1.15 81.07-1.63 80.19-2.1 79.49-2.93 78.79-3.75 78.29-4.9L78.29-4.9Q77.74-6.25 77.59-10.2L77.59-10.2Q77.44-13.25 77.54-18.05L77.54-18.05Q77.54-18.95 77.59-21.05L77.59-21.05 77.19-21Q76.14-20.9 75.34-21.55 74.54-22.2 74.42-23.23 74.29-24.25 74.94-25.05 75.59-25.85 76.59-26L76.59-26 77.74-26.1Q77.79-28.75 77.89-31.45L77.89-31.45Q77.94-32.5 78.69-33.2 79.44-33.9 80.49-33.85 81.54-33.8 82.24-33.05 82.94-32.3 82.89-31.25L82.89-31.25 82.74-26.5 84.39-26.6Q85.44-26.65 86.22-26 86.99-25.35 87.07-24.3 87.14-23.25 86.49-22.48 85.84-21.7 84.79-21.6L84.79-21.6 82.59-21.5Q82.54-19.1 82.54-18L82.54-18Q82.44-13.3 82.59-10.35L82.59-10.35Q82.69-7.35 82.89-6.9 83.09-6.45 83.19-6.28 83.29-6.1 83.57-5.93 83.84-5.75 84.14-5.7 84.44-5.65 85.27-5.43 86.09-5.2 87.04-4.85L87.04-4.85Q87.99-4.55 88.47-3.63 88.94-2.7 88.62-1.73 88.29-0.75 87.37-0.28 86.44 0.2 85.44-0.15L85.44-0.15ZM98.99 0L98.99 0Q98.04 0 97.29-0.5 96.54-1 96.29-1.8L96.29-1.8Q95.54-4.45 92.94-12.25L92.94-12.25Q90.69-18.95 89.64-23.3L89.64-23.3Q89.24-24.45 90.02-25.43 90.79-26.4 92.14-26.4L92.14-26.4Q94.04-26.4 94.54-24.4L94.54-24.4Q95.89-19.45 97.79-13.85L97.79-13.85Q98.54-11.5 98.79-9.95L98.79-9.95 99.94-13.45 100.64-15.55Q100.59-15.4 101.74-19L101.74-19Q102.04-19.9 102.34-20.88 102.64-21.85 102.99-22.85L102.99-22.85Q103.84-25.2 105.99-25.2L105.99-25.2Q107.04-25.2 107.72-24.6 108.39-24 108.89-22.6L108.89-22.6Q111.24-16 113.39-8.55L113.39-8.55 114.49-13.05Q114.89-14.85 115.39-16.95L115.39-16.95Q116.39-21.15 117.34-24.4L117.34-24.4Q117.59-25.35 118.24-25.9 118.89-26.45 119.69-26.45L119.69-26.45Q120.94-26.45 121.64-25.5 122.34-24.55 121.94-23.25L121.94-23.25Q121.89-23.15 121.54-21.45L121.54-21.45Q120.99-19 120.29-16.45L120.29-16.45 119.19-12.45Q117.29-5.35 116.44-2.85L116.44-2.85Q115.34 0 113.39 0L113.39 0Q112.34 0 111.54-0.65 110.74-1.3 110.34-2.45L110.34-2.45 109.54-4.9Q108.39-8.3 105.54-16.95L105.54-16.95 104.69-13.95Q102.39-6.05 101.89-3.8L101.89-3.8Q101.44-1.9 100.69-0.95 99.94 0 98.99 0L98.99 0ZM139.59-0.8L139.59-0.8Q137.79-0.1 135.51 0 133.24 0.1 131.29-0.53 129.34-1.15 127.84-2.45L127.84-2.45Q125.24-4.6 124.49-7.8 123.74-11 124.44-13.55 125.14-16.1 126.56-18.53 127.99-20.95 129.66-22.63 131.34-24.3 133.54-25.45 135.74-26.6 138.14-26.58 140.54-26.55 143.19-25.25L143.19-25.25Q143.59-25.05 144.06-24.65 144.54-24.25 144.89-23.95L144.89-23.95 145.54-23.3Q145.84-23 145.84-22.95L145.84-22.95Q146.64-22.25 146.69-21.15L146.69-21.15Q147.34-18.15 147.54-14.85 147.74-11.55 147.66-8.65 147.59-5.75 147.74-2.5L147.74-2.5Q147.79-1.5 147.09-0.75 146.39 0 145.34 0.05 144.29 0.1 143.54-0.6 142.79-1.3 142.74-2.3L142.74-2.3 142.74-3.05Q141.24-1.5 139.59-0.8L139.59-0.8ZM137.34-5.3L137.34-5.3Q138.09-5.5 138.54-5.7 138.99-5.9 139.66-6.3 140.34-6.7 141.09-7.3 141.84-7.9 142.44-8.8L142.44-8.8Q142.54-8.9 142.69-9L142.69-9Q142.69-15.75 141.84-19.85L141.84-19.85Q141.69-20.05 141.51-20.23 141.34-20.4 141.26-20.5 141.19-20.6 141.06-20.68 140.94-20.75 140.79-20.85L140.79-20.85Q138.39-22.15 135.74-20.93 133.09-19.7 131.09-16.35L131.09-16.35Q129.09-12.95 129.11-10.43 129.14-7.9 131.04-6.25L131.04-6.25Q132.19-5.3 133.89-5.05 135.59-4.8 137.34-5.3L137.34-5.3ZM156.64 0L156.64 0Q155.64 0 154.89-0.68 154.14-1.35 154.14-2.5L154.14-2.5 154.04-12.7Q153.99-16.15 153.99-21.3L153.99-21.3 153.99-24.25Q153.99-25.4 154.69-26.05 155.39-26.7 156.39-26.7L156.39-26.7Q157.44-26.7 158.21-26.03 158.99-25.35 158.99-24.15L158.99-24.15 158.99-22.65Q159.54-23.85 161.04-24.7L161.04-24.7Q163.09-25.95 165.54-25.95L165.54-25.95Q167.39-25.95 168.39-25.35 169.39-24.75 169.39-23.2L169.39-23.2Q169.39-22.2 168.79-21.53 168.19-20.85 167.04-20.85L167.04-20.85Q162.84-20.85 161.24-19.7L161.24-19.7Q160.34-19.1 159.66-18.25 158.99-17.4 158.99-16.6L158.99-16.6 159.09-10.35 159.14-2.5Q159.14-1.35 158.39-0.68 157.64 0 156.64 0L156.64 0ZM183.38 0.25L183.38 0.25Q179.68 0 176.93-1.25 174.18-2.5 172.73-4.4 171.28-6.3 170.63-7.9 169.98-9.5 169.83-11.08 169.68-12.65 169.98-15.15L169.98-15.15Q170.33-17.25 171.46-19.3 172.58-21.35 174.46-22.98 176.33-24.6 178.98-25.48 181.63-26.35 184.63-26L184.63-26Q187.53-25.65 189.58-24.43 191.63-23.2 193.08-21.3L193.08-21.3Q194.33-19.7 194.61-18.9 194.88-18.1 195.11-17.4 195.33-16.7 195.48-16.2 195.63-15.7 195.76-15.18 195.88-14.65 195.93-13.95L195.93-13.95Q195.98-13 195.58-12.2 195.18-11.4 194.38-10.95L194.38-10.95Q193.73-10.7 192.98-10.7L192.98-10.7 184.43-10.55Q175.43-10.5 175.43-10.35L175.43-10.35 175.28-10.35Q175.93-7.8 178.01-6.35 180.08-4.9 183.68-4.65L183.68-4.65Q185.63-4.55 186.93-4.85L186.93-4.85Q188.38-5.25 189.03-5.58 189.68-5.9 190.63-6.45L190.63-6.45Q191.58-6.8 192.53-6.35 193.48-5.9 193.83-4.95 194.18-4 193.76-3.1 193.33-2.2 192.43-1.7L192.43-1.7Q191.63-1.25 190.78-0.93 189.93-0.6 188.28-0.15 186.63 0.3 183.38 0.25L183.38 0.25ZM175.38-15.25L175.38-15.25Q178.28-15.4 190.43-15.55L190.43-15.55Q189.98-17.05 188.98-18.4L188.98-18.4Q186.98-20.7 184.03-21.05L184.03-21.05Q180.93-21.45 178.58-19.73 176.23-18 175.38-15.25L175.38-15.25ZM218.58 0.1L218.58 0.1Q217.83 0.15 217.18-0.25L217.18-0.25Q216.38-0.5 215.9-1.18 215.43-1.85 215.43-2.7L215.43-2.7Q215.43-4.3 215.68-18.35L215.68-18.35Q215.73-20.65 215.53-25.7L215.53-25.7Q215.33-30.65 215.48-33.4L215.48-33.4Q215.53-34.45 216.3-35.15 217.08-35.85 218.08-35.8L218.08-35.8 218.28-35.8Q218.73-36.05 219.23-36.1L219.23-36.1Q221.53-36.3 222.88-36.38 224.23-36.45 226.68-36.45 229.13-36.45 230.88-36.13 232.63-35.8 234.75-35.05 236.88-34.3 238.53-33.1L238.53-33.1Q242.03-30.55 243.65-26.58 245.28-22.6 245.13-18.2L245.13-18.2Q244.98-13.95 243.23-10L243.23-10Q241.43-6.1 238.28-3.6L238.28-3.6Q234.53-0.6 228.13-0.1L228.13-0.1Q226.23 0.05 223.13 0.05L223.13 0.05Q219.78 0.05 218.58 0.1L218.58 0.1ZM220.48-4.95L223.13-4.95Q226.08-4.95 227.73-5.1L227.73-5.1Q232.28-5.45 234.88-7.5L234.88-7.5Q237.08-9.25 238.4-12.18 239.73-15.1 239.83-18.4L239.83-18.4Q239.98-21.7 238.83-24.5L238.83-24.5Q237.63-27.35 235.33-29L235.33-29Q233.48-30.35 230.93-30.95L230.93-30.95Q228.33-31.55 225.88-31.48 223.43-31.4 220.43-31.15L220.43-31.15Q220.38-29.7 220.53-25.9L220.53-25.9Q220.73-20.45 220.68-18.25L220.68-18.25Q220.68-16.75 220.63-14.08 220.58-11.4 220.53-9.15 220.48-6.9 220.48-4.95L220.48-4.95ZM262.28 0.25L262.28 0.25Q258.58 0 255.83-1.25 253.08-2.5 251.63-4.4 250.18-6.3 249.53-7.9 248.88-9.5 248.73-11.08 248.58-12.65 248.88-15.15L248.88-15.15Q249.23-17.25 250.35-19.3 251.48-21.35 253.35-22.98 255.23-24.6 257.88-25.48 260.53-26.35 263.53-26L263.53-26Q266.43-25.65 268.48-24.43 270.53-23.2 271.98-21.3L271.98-21.3Q273.23-19.7 273.5-18.9 273.78-18.1 274-17.4 274.23-16.7 274.38-16.2 274.53-15.7 274.65-15.18 274.78-14.65 274.83-13.95L274.83-13.95Q274.88-13 274.48-12.2 274.08-11.4 273.28-10.95L273.28-10.95Q272.63-10.7 271.88-10.7L271.88-10.7 263.33-10.55Q254.33-10.5 254.33-10.35L254.33-10.35 254.18-10.35Q254.83-7.8 256.9-6.35 258.98-4.9 262.58-4.65L262.58-4.65Q264.53-4.55 265.83-4.85L265.83-4.85Q267.28-5.25 267.93-5.58 268.58-5.9 269.53-6.45L269.53-6.45Q270.48-6.8 271.43-6.35 272.38-5.9 272.73-4.95 273.08-4 272.65-3.1 272.23-2.2 271.33-1.7L271.33-1.7Q270.53-1.25 269.68-0.93 268.83-0.6 267.18-0.15 265.53 0.3 262.28 0.25L262.28 0.25ZM254.28-15.25L254.28-15.25Q257.18-15.4 269.33-15.55L269.33-15.55Q268.88-17.05 267.88-18.4L267.88-18.4Q265.88-20.7 262.93-21.05L262.93-21.05Q259.83-21.45 257.48-19.73 255.13-18 254.28-15.25L254.28-15.25ZM287.42 0L287.42 0Q286.47 0.05 285.72-0.5L285.72-0.5Q285.47-0.7 285.27-0.95L285.27-0.95Q285.07-1.15 284.92-1.4L284.92-1.4 284.52-2.1Q284.22-2.7 283.77-3.75L283.77-3.75 282.77-6Q281.97-7.95 279.3-14.93 276.62-21.9 276.12-23.15L276.12-23.15Q275.77-24.1 276.2-25.05 276.62-26 277.57-26.38 278.52-26.75 279.47-26.33 280.42-25.9 280.82-24.95L280.82-24.95Q281.22-23.85 283.95-16.75 286.67-9.65 287.37-7.9L287.37-7.9 287.57-7.45Q287.77-7.8 287.92-8.18 288.07-8.55 288.17-8.78 288.27-9 288.32-9.2L288.32-9.2 288.42-9.4Q288.77-10.2 291.1-16.2 293.42-22.2 295.07-25.2L295.07-25.2Q295.57-26.1 296.57-26.4 297.57-26.7 298.47-26.2 299.37-25.7 299.67-24.7 299.97-23.7 299.47-22.8L299.47-22.8Q297.87-19.9 295.8-14.5 293.72-9.1 293.02-7.4L293.02-7.4 291.62-4.35Q290.92-2.95 290.32-2.05L290.32-2.05Q289.87-1.4 289.42-1L289.42-1Q288.52-0.1 287.42 0L287.42 0ZM315.12 0.25L315.12 0.25Q311.42 0 308.67-1.25 305.92-2.5 304.47-4.4 303.02-6.3 302.37-7.9 301.72-9.5 301.57-11.08 301.42-12.65 301.72-15.15L301.72-15.15Q302.07-17.25 303.2-19.3 304.32-21.35 306.2-22.98 308.07-24.6 310.72-25.48 313.37-26.35 316.37-26L316.37-26Q319.27-25.65 321.32-24.43 323.37-23.2 324.82-21.3L324.82-21.3Q326.07-19.7 326.35-18.9 326.62-18.1 326.85-17.4 327.07-16.7 327.22-16.2 327.37-15.7 327.5-15.18 327.62-14.65 327.67-13.95L327.67-13.95Q327.72-13 327.32-12.2 326.92-11.4 326.12-10.95L326.12-10.95Q325.47-10.7 324.72-10.7L324.72-10.7 316.17-10.55Q307.17-10.5 307.17-10.35L307.17-10.35 307.02-10.35Q307.67-7.8 309.75-6.35 311.82-4.9 315.42-4.65L315.42-4.65Q317.37-4.55 318.67-4.85L318.67-4.85Q320.12-5.25 320.77-5.58 321.42-5.9 322.37-6.45L322.37-6.45Q323.32-6.8 324.27-6.35 325.22-5.9 325.57-4.95 325.92-4 325.5-3.1 325.07-2.2 324.17-1.7L324.17-1.7Q323.37-1.25 322.52-0.93 321.67-0.6 320.02-0.15 318.37 0.3 315.12 0.25L315.12 0.25ZM307.12-15.25L307.12-15.25Q310.02-15.4 322.17-15.55L322.17-15.55Q321.72-17.05 320.72-18.4L320.72-18.4Q318.72-20.7 315.77-21.05L315.77-21.05Q312.67-21.45 310.32-19.73 307.97-18 307.12-15.25L307.12-15.25ZM337.17-2.4L337.17-2.4Q337.12-1.35 336.37-0.65 335.62 0.05 334.57 0 333.52-0.05 332.82-0.8 332.12-1.55 332.17-2.6L332.17-2.6Q332.37-9.25 332.37-12.7 332.37-16.15 332.27-23 332.17-29.85 332.17-33.3L332.17-33.3Q332.17-34.35 332.89-35.08 333.62-35.8 334.67-35.8 335.72-35.8 336.44-35.08 337.17-34.35 337.17-33.3L337.17-33.3Q337.17-29.85 337.27-23.5 337.37-17.15 337.34-11.98 337.32-6.8 337.17-2.4L337.17-2.4ZM356.81-0.35L356.81-0.35Q350.21 1.25 346.26-3L346.26-3Q343.11-6.25 342.36-11.35L342.36-11.35Q341.81-15.35 343.31-18.95L343.31-18.95Q345.11-23.55 349.01-25.75L349.01-25.75Q349.81-26.2 351.01-26.4L351.01-26.4Q351.06-26.4 351.71-26.45L351.71-26.45Q351.96-26.5 352.11-26.55L352.11-26.55Q352.86-26.7 353.61-26.4L353.61-26.4Q353.81-26.4 354.56-26.38 355.31-26.35 355.56-26.33 355.81-26.3 356.44-26.23 357.06-26.15 357.46-26.05L357.46-26.05 358.41-25.7Q359.01-25.5 359.56-25.2 360.11-24.9 360.76-24.5L360.76-24.5Q364.01-22.3 365.26-18.32 366.51-14.35 365.91-11.9L365.91-11.9Q365.46-9.2 364.31-6.88 363.16-4.55 361.14-2.75 359.11-0.95 356.81-0.35L356.81-0.35ZM355.26-5.55L355.26-5.55Q357.41-5.85 358.94-7.78 360.46-9.7 360.94-11.85 361.41-14 360.59-16.57 359.76-19.15 357.96-20.3L357.96-20.3Q357.41-20.7 357.06-20.88 356.71-21.05 356.24-21.18 355.76-21.3 355.49-21.3 355.21-21.3 354.31-21.35 353.41-21.4 352.71-21.45L352.71-21.45Q352.56-21.45 352.36-21.5L352.36-21.5Q351.81-21.45 351.76-21.45L351.76-21.45 351.41-21.35Q349.21-20.15 348.04-17.53 346.86-14.9 347.36-12.1L347.36-12.1Q347.91-8.7 349.81-6.95L349.81-6.95Q351.86-5.05 355.26-5.55L355.26-5.55ZM376.61 7.55L376.61 7.55Q376.61 8.6 375.86 9.3 375.11 10 374.06 10 373.01 10 372.31 9.25 371.61 8.5 371.61 7.45L371.61 7.45Q371.81-2.4 371.81-24L371.81-24Q371.81-25.05 372.54-25.78 373.26-26.5 374.31-26.5L374.31-26.5Q375.06-26.5 375.69-25.83 376.31-25.15 376.61-24.15L376.61-24.15 377.31-24.6Q380.31-26.4 383.26-26.55 386.21-26.7 388.56-25.25L388.56-25.25Q390.76-24 392.29-21.75 393.81-19.5 394.51-16.85L394.51-16.85Q395.06-14.95 395.11-12.8 395.16-10.65 394.56-8.8 393.96-6.95 392.81-5.15 391.66-3.35 389.59-2 387.51-0.65 384.81-0.15L384.81-0.15Q380.16 0.7 376.76-1.75L376.76-1.75Q376.71 2.9 376.61 7.55L376.61 7.55ZM383.91-5.05L383.91-5.05Q387.71-5.75 389.24-8.68 390.76-11.6 389.71-15.55L389.71-15.55Q388.66-19.45 386.06-20.9L386.06-20.9Q383.41-22.45 379.91-20.3L379.91-20.3Q378.31-19.35 378.06-19.05L378.06-19.05Q377.91-18.9 377.81-18.78 377.71-18.65 377.46-18.2L377.46-18.2 376.81-17.3 376.81-9.1Q377.06-8.85 377.21-8.55L377.21-8.55Q378.61-6.35 380.16-5.5 381.71-4.65 383.91-5.05L383.91-5.05ZM412.96 0.25L412.96 0.25Q409.26 0 406.51-1.25 403.76-2.5 402.31-4.4 400.86-6.3 400.21-7.9 399.56-9.5 399.41-11.08 399.26-12.65 399.56-15.15L399.56-15.15Q399.91-17.25 401.03-19.3 402.16-21.35 404.03-22.98 405.91-24.6 408.56-25.48 411.21-26.35 414.21-26L414.21-26Q417.11-25.65 419.16-24.43 421.21-23.2 422.66-21.3L422.66-21.3Q423.91-19.7 424.18-18.9 424.46-18.1 424.68-17.4 424.91-16.7 425.06-16.2 425.21-15.7 425.33-15.18 425.46-14.65 425.51-13.95L425.51-13.95Q425.56-13 425.16-12.2 424.76-11.4 423.96-10.95L423.96-10.95Q423.31-10.7 422.56-10.7L422.56-10.7 414.01-10.55Q405.01-10.5 405.01-10.35L405.01-10.35 404.86-10.35Q405.51-7.8 407.58-6.35 409.66-4.9 413.26-4.65L413.26-4.65Q415.21-4.55 416.51-4.85L416.51-4.85Q417.96-5.25 418.61-5.58 419.26-5.9 420.21-6.45L420.21-6.45Q421.16-6.8 422.11-6.35 423.06-5.9 423.41-4.95 423.76-4 423.33-3.1 422.91-2.2 422.01-1.7L422.01-1.7Q421.21-1.25 420.36-0.93 419.51-0.6 417.86-0.15 416.21 0.3 412.96 0.25L412.96 0.25ZM404.96-15.25L404.96-15.25Q407.86-15.4 420.01-15.55L420.01-15.55Q419.56-17.05 418.56-18.4L418.56-18.4Q416.56-20.7 413.61-21.05L413.61-21.05Q410.51-21.45 408.16-19.73 405.81-18 404.96-15.25L404.96-15.25ZM432.91 0L432.91 0Q431.91 0 431.16-0.68 430.41-1.35 430.41-2.5L430.41-2.5 430.31-12.7Q430.26-16.15 430.26-21.3L430.26-21.3 430.26-24.25Q430.26-25.4 430.96-26.05 431.66-26.7 432.66-26.7L432.66-26.7Q433.71-26.7 434.48-26.03 435.26-25.35 435.26-24.15L435.26-24.15 435.26-22.65Q435.81-23.85 437.31-24.7L437.31-24.7Q439.36-25.95 441.81-25.95L441.81-25.95Q443.66-25.95 444.66-25.35 445.66-24.75 445.66-23.2L445.66-23.2Q445.66-22.2 445.06-21.53 444.46-20.85 443.31-20.85L443.31-20.85Q439.11-20.85 437.51-19.7L437.51-19.7Q436.61-19.1 435.93-18.25 435.26-17.4 435.26-16.6L435.26-16.6 435.36-10.35 435.41-2.5Q435.41-1.35 434.66-0.68 433.91 0 432.91 0L432.91 0Z" opacity="1" transform="matrix(1,0,0,1,0,0)" fill="#89939e" class="slogan-text-1" data-fill-palette-color="secondary" id="text-1"></path></svg></g></svg></g></svg></g></svg></g><g transform="matrix(1,0,0,1,405.54844718998606,0)"><svg viewBox="0 0 106.16589184014846 106.16589184014846" height="106.16589184014846" width="106.16589184014846"><g data-palette-color="#000000"><rect width="29.018677102973914" height="106.16589184014846" fill="#000000" stroke="transparent" data-fill-palette-color="accent" x="0" fill-opacity="1"></rect><rect width="29.018677102973914" height="106.16589184014846" fill="#000000" stroke="transparent" data-fill-palette-color="accent" x="35.38863061338282" fill-opacity="0.75"></rect><rect width="29.018677102973914" height="106.16589184014846" fill="#000000" stroke="transparent" data-fill-palette-color="accent" x="70.77726122676565" fill-opacity="0.5"></rect></g></svg></g></svg></g><defs></defs></svg><rect width="395.52" height="82.05893471776" fill="none" stroke="none" visibility="hidden"></rect></g></svg></g></svg>