<?xml version="1.0" encoding="UTF-8"?>
<svg xmlns="http://www.w3.org/2000/svg" xmlns:xlink="http://www.w3.org/1999/xlink" width="315px" height="64px" viewBox="0 0 315 64" version="1.1">
<g id="surface1">
<path style=" stroke:none;fill-rule:nonzero;fill:rgb(0%,0%,0%);fill-opacity:1;" d="M 209.402344 0.0273438 L 264.269531 0.0273438 L 264.269531 10.160156 L 242.503906 10.160156 L 242.503906 63.472656 L 231.621094 63.472656 L 231.621094 10.160156 L 209.402344 10.160156 Z M 209.402344 0.0273438 "/>
<path style=" stroke:none;fill-rule:nonzero;fill:rgb(0%,0%,0%);fill-opacity:1;" d="M 119.164062 0.0273438 L 119.164062 10.160156 L 75.1875 10.160156 L 75.1875 26.460938 L 110.554688 26.460938 L 110.554688 36.59375 L 75.1875 36.59375 L 75.1875 53.335938 L 119.164062 53.335938 L 119.164062 63.472656 L 64.304688 63.472656 L 64.304688 10.160156 L 64.296875 10.160156 L 64.296875 0.0273438 Z M 119.164062 0.0273438 "/>
<path style=" stroke:none;fill-rule:nonzero;fill:rgb(0%,0%,0%);fill-opacity:1;" d="M 146.5625 0.0546875 L 132.320312 0.0546875 L 183.332031 63.496094 L 197.617188 63.496094 L 172.109375 31.796875 L 197.574219 0.101562 L 183.332031 0.125 L 164.976562 22.9375 Z M 146.5625 0.0546875 "/>
<path style=" stroke:none;fill-rule:nonzero;fill:rgb(0%,0%,0%);fill-opacity:1;" d="M 161.175781 45.371094 L 154.046875 36.5 L 132.28125 63.546875 L 146.5625 63.546875 Z M 161.175781 45.371094 "/>
<path style=" stroke:none;fill-rule:evenodd;fill:rgb(0%,0%,0%);fill-opacity:1;" d="M 64.683594 63.472656 L 13.601562 0 L 0 0 L 0 63.445312 L 10.882812 63.445312 L 10.882812 13.5625 L 51.011719 63.472656 Z M 64.683594 63.472656 "/>
<path style=" stroke:none;fill-rule:nonzero;fill:rgb(0%,0%,0%);fill-opacity:1;" d="M 266.714844 63.082031 C 265.917969 63.082031 265.242188 62.808594 264.671875 62.253906 C 264.105469 61.703125 263.824219 61.035156 263.832031 60.242188 C 263.824219 59.46875 264.105469 58.808594 264.671875 58.257812 C 265.242188 57.703125 265.917969 57.425781 266.714844 57.425781 C 267.484375 57.425781 268.152344 57.703125 268.722656 58.257812 C 269.296875 58.808594 269.585938 59.46875 269.59375 60.242188 C 269.585938 60.765625 269.453125 61.246094 269.1875 61.671875 C 268.914062 62.109375 268.566406 62.453125 268.132812 62.699219 C 267.703125 62.953125 267.230469 63.082031 266.714844 63.082031 Z M 266.714844 63.082031 "/>
<path style=" stroke:none;fill-rule:nonzero;fill:rgb(0%,0%,0%);fill-opacity:1;" d="M 285.289062 36.355469 L 290.113281 36.355469 L 290.113281 54.949219 C 290.105469 56.65625 289.738281 58.117188 289.015625 59.347656 C 288.285156 60.574219 287.273438 61.511719 285.976562 62.175781 C 284.6875 62.828125 283.175781 63.164062 281.457031 63.164062 C 279.886719 63.164062 278.476562 62.878906 277.222656 62.328125 C 275.96875 61.773438 274.976562 60.945312 274.246094 59.855469 C 273.507812 58.765625 273.144531 57.40625 273.144531 55.777344 L 277.976562 55.777344 C 277.984375 56.488281 278.144531 57.105469 278.457031 57.625 C 278.765625 58.140625 279.191406 58.53125 279.738281 58.808594 C 280.289062 59.085938 280.925781 59.222656 281.640625 59.222656 C 282.414062 59.222656 283.078125 59.0625 283.617188 58.734375 C 284.15625 58.414062 284.566406 57.9375 284.855469 57.296875 C 285.136719 56.664062 285.285156 55.878906 285.289062 54.949219 Z M 285.289062 36.355469 "/>
<path style=" stroke:none;fill-rule:nonzero;fill:rgb(0%,0%,0%);fill-opacity:1;" d="M 309.957031 43.628906 C 309.839844 42.5 309.320312 41.621094 308.421875 40.996094 C 307.515625 40.363281 306.34375 40.050781 304.90625 40.050781 C 303.894531 40.050781 303.023438 40.203125 302.300781 40.5 C 301.578125 40.804688 301.019531 41.214844 300.636719 41.730469 C 300.253906 42.246094 300.0625 42.835938 300.046875 43.496094 C 300.046875 44.046875 300.179688 44.527344 300.4375 44.929688 C 300.695312 45.335938 301.039062 45.675781 301.492188 45.953125 C 301.933594 46.238281 302.425781 46.46875 302.964844 46.660156 C 303.511719 46.847656 304.058594 47.007812 304.601562 47.140625 L 307.117188 47.757812 C 308.128906 47.988281 309.109375 48.300781 310.042969 48.703125 C 310.980469 49.09375 311.828125 49.597656 312.574219 50.199219 C 313.320312 50.804688 313.910156 51.53125 314.34375 52.382812 C 314.777344 53.230469 315 54.226562 315 55.375 C 315 56.925781 314.601562 58.285156 313.796875 59.460938 C 312.992188 60.632812 311.835938 61.550781 310.316406 62.210938 C 308.804688 62.867188 306.976562 63.199219 304.824219 63.199219 C 302.746094 63.199219 300.929688 62.878906 299.40625 62.242188 C 297.871094 61.609375 296.675781 60.675781 295.8125 59.457031 C 294.949219 58.234375 294.484375 56.742188 294.417969 54.992188 L 299.199219 54.992188 C 299.265625 55.90625 299.558594 56.671875 300.0625 57.289062 C 300.570312 57.898438 301.234375 58.351562 302.042969 58.65625 C 302.863281 58.953125 303.777344 59.105469 304.789062 59.105469 C 305.84375 59.105469 306.769531 58.945312 307.574219 58.632812 C 308.371094 58.320312 308.996094 57.886719 309.449219 57.316406 C 309.90625 56.757812 310.132812 56.097656 310.140625 55.339844 C 310.132812 54.648438 309.925781 54.074219 309.527344 53.625 C 309.121094 53.171875 308.5625 52.796875 307.847656 52.488281 C 307.125 52.183594 306.285156 51.910156 305.324219 51.667969 L 302.273438 50.898438 C 300.066406 50.339844 298.320312 49.488281 297.042969 48.347656 C 295.761719 47.203125 295.128906 45.691406 295.128906 43.792969 C 295.128906 42.238281 295.554688 40.871094 296.417969 39.699219 C 297.273438 38.53125 298.445312 37.621094 299.929688 36.972656 C 301.417969 36.320312 303.097656 36 304.972656 36 C 306.875 36 308.539062 36.320312 309.976562 36.972656 C 311.414062 37.621094 312.542969 38.523438 313.363281 39.671875 C 314.179688 40.820312 314.609375 42.136719 314.632812 43.628906 Z M 309.957031 43.628906 "/>
</g>
</svg>
