<svg xmlns="http://www.w3.org/2000/svg" fill="none" viewBox="0 0 24 24" strokeWidth="{1.5}" stroke="currentColor">
    <g>
        <path style="opacity:0.983" fill="#24282f"
            d="M 109.5,6.5 C 162.535,4.9199 201.035,27.5866 225,74.5C 245.058,127.761 234.225,173.594 192.5,212C 182.072,219.882 170.739,226.216 158.5,231C 155.833,231.667 153.167,231.667 150.5,231C 149.299,230.097 148.465,228.931 148,227.5C 147.667,213.5 147.333,199.5 147,185.5C 146.016,180.699 143.85,176.532 140.5,173C 184.204,165.793 200.371,140.626 189,97.5C 186.785,92.9003 183.952,88.7336 180.5,85C 184.343,75.1751 184.177,65.3417 180,55.5C 174.711,54.7698 169.544,55.6031 164.5,58C 158.862,60.7346 153.362,63.5679 148,66.5C 138.769,64.4487 129.436,63.1154 120,62.5C 110.545,63.0099 101.212,64.3432 92,66.5C 85.7583,62.9633 79.2583,59.7966 72.5,57C 68.272,55.5877 63.9387,54.7544 59.5,54.5C 56.0318,64.3906 55.6985,74.3906 58.5,84.5C 45.9345,102.016 43.4345,121.016 51,141.5C 56.461,155.825 66.6277,164.991 81.5,169C 87.5076,170.334 93.5076,171.668 99.5,173C 98.3333,174.167 97.1667,175.333 96,176.5C 94.1519,180.729 92.3186,184.896 90.5,189C 75.299,194.934 63.799,190.767 56,176.5C 51.2948,169.443 44.7948,166.61 36.5,168C 36.0426,168.414 35.7093,168.914 35.5,169.5C 44.7871,175.97 51.2871,184.637 55,195.5C 61.1523,202.113 68.8189,205.447 78,205.5C 82.2013,204.941 86.368,204.275 90.5,203.5C 91.6651,211.813 91.8317,220.147 91,228.5C 88.4406,231.349 85.2739,232.183 81.5,231C 26.6715,208.205 1.1715,167.038 5,107.5C 11.8584,63.9759 35.3584,33.1426 75.5,15C 86.6587,10.8769 97.992,8.04361 109.5,6.5 Z" />
    </g>
</svg>