<svg xmlns="http://www.w3.org/2000/svg" version="1.1" width="635px" height="540px"
    style="shape-rendering:geometricPrecision; text-rendering:geometricPrecision; image-rendering:optimizeQuality; fill-rule:evenodd; clip-rule:evenodd"
    xmlns:xlink="http://www.w3.org/1999/xlink">
    <g>
        <path style="opacity:0.99" fill="currentColor"
            d="M 31.5,-0.5 C 189.167,-0.5 346.833,-0.5 504.5,-0.5C 522.154,4.65742 532.654,16.3241 536,34.5C 536.667,189.833 536.667,345.167 536,500.5C 532.842,518.66 522.342,530.16 504.5,535C 346.833,535.667 189.167,535.667 31.5,535C 13.6462,529.986 2.97951,518.486 -0.5,500.5C -0.5,345.167 -0.5,189.833 -0.5,34.5C 3.16667,16.4974 13.8333,4.83077 31.5,-0.5 Z M 110.5,74.5 C 137.902,72.4172 155.735,84.4172 164,110.5C 166.751,132.16 158.918,148.66 140.5,160C 119.591,169.109 101.091,165.609 85,149.5C 69.5409,128.963 69.8742,108.63 86,88.5C 93.1158,81.8627 101.282,77.196 110.5,74.5 Z M 350.5,194.5 C 369.32,193.581 387.654,196.081 405.5,202C 423.274,209.44 436.107,221.94 444,239.5C 450.347,255.222 454.014,271.556 455,288.5C 455.84,305.323 456.34,322.157 456.5,339C 455.687,377.829 455.354,416.663 455.5,455.5C 429.5,455.5 403.5,455.5 377.5,455.5C 377.667,406.499 377.5,357.499 377,308.5C 374.863,273.023 356.363,258.523 321.5,265C 306.109,268.724 296.276,278.224 292,293.5C 289.693,301.676 288.36,310.009 288,318.5C 287.5,364.165 287.333,409.832 287.5,455.5C 261.5,455.5 235.5,455.5 209.5,455.5C 209.5,370.833 209.5,286.167 209.5,201.5C 234.5,201.5 259.5,201.5 284.5,201.5C 284.5,212.833 284.5,224.167 284.5,235.5C 285.675,235.719 286.675,235.386 287.5,234.5C 302.274,211.399 323.274,198.065 350.5,194.5 Z M 80.5,201.5 C 106.5,201.5 132.5,201.5 158.5,201.5C 158.5,286.167 158.5,370.833 158.5,455.5C 132.5,455.5 106.5,455.5 80.5,455.5C 80.5,370.833 80.5,286.167 80.5,201.5 Z" />
    </g>
    <g>
        <path style="opacity:0.826" fill="currentColor"
            d="M 634.5,500.5 C 634.5,501.833 634.5,503.167 634.5,504.5C 631.786,522.935 621.453,534.602 603.5,539.5C 599.167,539.5 594.833,539.5 590.5,539.5C 567.047,532.626 557.213,516.959 561,492.5C 568.291,472.095 582.791,463.262 604.5,466C 622.587,470.581 632.587,482.081 634.5,500.5 Z M 591.5,470.5 C 617.299,470.798 629.466,483.798 628,509.5C 620.65,529.759 606.483,537.259 585.5,532C 569.662,524.494 563.162,511.994 566,494.5C 570.217,481.778 578.717,473.778 591.5,470.5 Z M 589.5,487.5 C 594.267,487.191 598.934,487.691 603.5,489C 607.663,492.829 607.329,496.163 602.5,499C 598.179,499.499 593.846,499.666 589.5,499.5C 589.5,495.5 589.5,491.5 589.5,487.5 Z" />
    </g>
    <g>
        <path style="opacity:0.885" fill="currentColor"
            d="M 583.5,482.5 C 590.841,482.334 598.174,482.5 605.5,483C 608.583,483.786 610.749,485.619 612,488.5C 615.024,497.77 611.857,503.27 602.5,505C 606.539,510.242 610.205,515.742 613.5,521.5C 611.235,522.647 608.902,522.814 606.5,522C 603.042,516.918 599.709,511.752 596.5,506.5C 594.257,505.526 591.924,505.192 589.5,505.5C 589.5,511.167 589.5,516.833 589.5,522.5C 587.5,522.5 585.5,522.5 583.5,522.5C 583.5,509.167 583.5,495.833 583.5,482.5 Z M 589.5,487.5 C 589.5,491.5 589.5,495.5 589.5,499.5C 593.846,499.666 598.179,499.499 602.5,499C 607.329,496.163 607.663,492.829 603.5,489C 598.934,487.691 594.267,487.191 589.5,487.5 Z" />
    </g>
</svg>