<svg xmlns="http://www.w3.org/2000/svg" version="1.1" width="360px" height="362px"
    style="shape-rendering:geometricPrecision; text-rendering:geometricPrecision; image-rendering:optimizeQuality; fill-rule:evenodd; clip-rule:evenodd"
    xmlns:xlink="http://www.w3.org/1999/xlink">
    <g>
        <path style="opacity:0.979" fill="#24d266"
            d="M 161.5,-0.5 C 173.833,-0.5 186.167,-0.5 198.5,-0.5C 267.168,9.4198 316.335,45.7531 346,108.5C 352.563,125.091 357.063,142.091 359.5,159.5C 359.5,172.167 359.5,184.833 359.5,197.5C 347.954,274.069 305.621,325.236 232.5,351C 184.355,364.613 138.189,359.78 94,336.5C 63.4331,344.931 32.9331,353.265 2.5,361.5C 1.5,361.5 0.5,361.5 -0.5,361.5C -0.5,360.167 -0.5,358.833 -0.5,357.5C 7.99476,327.998 16.3281,298.332 24.5,268.5C -4.18464,215.564 -7.01797,161.231 16,105.5C 45.8498,44.6504 94.3498,9.3171 161.5,-0.5 Z M 165.5,30.5 C 220.911,27.2978 265.744,47.2978 300,90.5C 337.587,148.635 337.92,206.968 301,265.5C 266.102,310.038 220.269,330.205 163.5,326C 140.215,322.961 118.548,315.461 98.5,303.5C 80.335,307.541 62.335,312.208 44.5,317.5C 44.1667,317.167 43.8333,316.833 43.5,316.5C 48.4784,299.253 53.145,281.92 57.5,264.5C 51.8478,254.529 46.6811,244.196 42,233.5C 19.624,165.316 35.4573,107.816 89.5,61C 112.144,44.0645 137.478,33.8979 165.5,30.5 Z" />
    </g>
    <g>
        <path style="opacity:0.982" fill="#24d266"
            d="M 113.5,95.5 C 118.844,95.334 124.177,95.5006 129.5,96C 131.286,96.7845 132.786,97.9512 134,99.5C 139.333,112.167 144.667,124.833 150,137.5C 150.667,140.167 150.667,142.833 150,145.5C 145.284,152.438 140.451,159.271 135.5,166C 149.59,193.088 170.924,212.088 199.5,223C 201.167,223.667 202.833,223.667 204.5,223C 211.207,215.962 217.54,208.628 223.5,201C 226.928,200.299 230.262,200.632 233.5,202C 246.519,207.592 259.019,214.092 271,221.5C 273.204,241.257 265.037,254.757 246.5,262C 233.181,266.624 219.848,266.624 206.5,262C 170.167,250.422 140.334,229.588 117,199.5C 107.232,187.638 99.2316,174.638 93,160.5C 84.3024,137.01 88.8024,116.51 106.5,99C 108.925,97.7874 111.259,96.6207 113.5,95.5 Z" />
    </g>
</svg>