<?xml version="1.0" encoding="utf-8"?>
<!-- Generator: Adobe Illustrator 24.0.3, SVG Export Plug-In . SVG Version: 6.00 Build 0)  -->
<svg version="1.1" id="Layer_1" xmlns="http://www.w3.org/2000/svg" xmlns:xlink="http://www.w3.org/1999/xlink" x="0px" y="0px"
	 viewBox="0 0 327.134 327.134" enable-background="new 0 0 327.134 327.134" xml:space="preserve">
<g>
	<g>
		<g>
			<path fill="#FF595A" d="M249.652,139.71c-2.945-18.81-18.156-34.227-36.926-37.424c-21.423-3.645-40.496,7.779-48.859,25.295
				c-8.363-17.516-27.435-28.941-48.859-25.29c-18.77,3.197-33.975,18.614-36.921,37.429c-2.412,15.417,2.935,29.676,12.733,39.479
				l64.724,64.724c4.597,4.597,12.043,4.597,16.64,0l64.724-64.724C246.722,169.39,252.069,155.126,249.652,139.71z"/>
		</g>
	</g>
	<g>
		<g>
			<path fill="#7BA6E2" d="M163.873,45.179c-2.779,0-5.035-2.256-5.035-5.035V14.673c0-2.779,2.256-5.035,5.035-5.035
				s5.035,2.256,5.035,5.035v25.472C168.908,42.924,166.652,45.179,163.873,45.179z"/>
			<path fill="#7BA6E2" d="M163.872,47.698c-4.165,0-7.552-3.388-7.552-7.552V14.673c0-4.165,3.388-7.552,7.552-7.552
				c4.165,0,7.555,3.388,7.555,7.552v25.472C171.427,44.31,168.037,47.698,163.872,47.698z M163.872,12.156
				c-1.389,0-2.517,1.128-2.517,2.517v25.472c0,1.389,1.128,2.517,2.517,2.517c1.389,0,2.517-1.128,2.517-2.517V14.673
				C166.39,13.284,165.261,12.156,163.872,12.156z"/>
		</g>
	</g>
	<g>
		<g>
			<path fill="#7BA6E2" d="M163.873,318.524c-2.779,0-5.035-2.251-5.035-5.035v-25.472c0-2.784,2.256-5.035,5.035-5.035
				s5.035,2.251,5.035,5.035v25.472C168.908,316.268,166.652,318.524,163.873,318.524z"/>
			<path fill="#7BA6E2" d="M163.872,321.04c-4.165,0-7.552-3.388-7.552-7.552v-25.469c0-4.165,3.388-7.552,7.552-7.552
				c4.165,0,7.555,3.388,7.555,7.552v25.469C171.427,317.652,168.037,321.04,163.872,321.04z M163.872,285.5
				c-1.389,0-2.517,1.131-2.517,2.517v25.469c0,1.387,1.128,2.517,2.517,2.517c1.389,0,2.517-1.131,2.517-2.517v-25.469
				C166.39,286.631,165.261,285.5,163.872,285.5z"/>
		</g>
	</g>
	<g>
		<g>
			<path fill="#7BA6E2" d="M313.278,169.113h-25.477c-2.784,0-5.035-2.251-5.035-5.035c0-2.779,2.251-5.035,5.035-5.035h25.477
				c2.784,0,5.035,2.256,5.035,5.035C318.313,166.863,316.062,169.113,313.278,169.113z"/>
			<path fill="#7BA6E2" d="M313.279,171.63H287.8c-4.165,0-7.552-3.388-7.552-7.552c0-4.165,3.388-7.552,7.552-7.552h25.479
				c4.165,0,7.552,3.388,7.552,7.552C320.832,168.243,317.444,171.63,313.279,171.63z M287.8,161.56
				c-1.387,0-2.517,1.128-2.517,2.517c0,1.387,1.131,2.517,2.517,2.517h25.479c1.387,0,2.517-1.131,2.517-2.517
				c0-1.389-1.131-2.517-2.517-2.517H287.8z"/>
		</g>
	</g>
	<g>
		<g>
			<path fill="#7BA6E2" d="M39.934,169.113H14.462c-2.779,0-5.035-2.251-5.035-5.035c0-2.779,2.256-5.035,5.035-5.035h25.472
				c2.779,0,5.035,2.256,5.035,5.035C44.969,166.863,42.713,169.113,39.934,169.113z"/>
			<path fill="#7BA6E2" d="M39.935,171.63H14.463c-4.165,0-7.552-3.388-7.552-7.552c0-4.165,3.388-7.552,7.552-7.552h25.472
				c4.165,0,7.552,3.388,7.552,7.552C47.487,168.243,44.099,171.63,39.935,171.63z M14.463,161.56c-1.389,0-2.517,1.128-2.517,2.517
				c0,1.387,1.128,2.517,2.517,2.517h25.472c1.389,0,2.517-1.131,2.517-2.517c0-1.389-1.128-2.517-2.517-2.517H14.463z"/>
		</g>
	</g>
	<g>
		<g>
			<path fill="#7BA6E2" d="M76.235,81.481c-1.289,0-2.578-0.493-3.56-1.475l-18.01-18.015c-1.969-1.969-1.969-5.156,0-7.119
				c1.969-1.969,5.151-1.969,7.119,0l18.01,18.015c1.969,1.969,1.969,5.156,0,7.119C78.813,80.988,77.524,81.481,76.235,81.481z"/>
			<path fill="#7BA6E2" d="M76.236,83.999c-2.016,0-3.914-0.787-5.34-2.213L52.886,63.771c-1.428-1.428-2.215-3.329-2.215-5.347
				c0.002-2.016,0.789-3.911,2.218-5.335c2.938-2.94,7.729-2.943,10.677,0.002l18.011,18.015c1.428,1.428,2.213,3.326,2.213,5.342
				c0,2.016-0.787,3.914-2.213,5.34C80.145,83.215,78.25,83.999,76.236,83.999z M58.226,55.916c-0.644,0-1.288,0.243-1.78,0.735
				c-0.477,0.477-0.74,1.106-0.74,1.777c0,0.671,0.263,1.305,0.74,1.782l18.011,18.015c0.954,0.949,2.603,0.951,3.562-0.002
				c0.474-0.474,0.735-1.104,0.735-1.775c0-0.674-0.263-1.305-0.74-1.782L60.006,56.651C59.514,56.16,58.87,55.916,58.226,55.916z"
				/>
		</g>
	</g>
	<g>
		<g>
			<path fill="#7BA6E2" d="M269.52,274.76c-1.289,0-2.578-0.493-3.56-1.475l-18.01-18.01c-1.969-1.969-1.969-5.151,0-7.119
				c1.969-1.969,5.151-1.969,7.119,0l18.01,18.01c1.969,1.969,1.969,5.151,0,7.119C272.098,274.272,270.809,274.76,269.52,274.76z"
				/>
			<path fill="#7BA6E2" d="M269.519,277.279c-2.011,0-3.904-0.782-5.335-2.208l-18.015-18.015c-2.94-2.95-2.94-7.739,0-10.679
				c1.431-1.431,3.324-2.218,5.34-2.218c0.005,0,0.005,0,0.005,0c2.016,0.005,3.914,0.792,5.335,2.218l18.011,18.011
				c2.94,2.94,2.94,7.729,0,10.679C273.433,276.493,271.535,277.279,269.519,277.279z M251.509,249.194
				c-0.669,0-1.303,0.266-1.78,0.742c-0.978,0.978-0.978,2.576,0,3.56l18.011,18.011c0.954,0.944,2.606,0.949,3.56,0
				c0.978-0.983,0.978-2.581,0-3.56l-18.011-18.011c-0.477-0.477-1.106-0.742-1.775-0.742H251.509z"/>
		</g>
	</g>
	<g>
		<g>
			<path fill="#7BA6E2" d="M251.51,81.481c-1.289,0-2.578-0.493-3.56-1.475c-1.969-1.964-1.969-5.151,0-7.119l18.01-18.015
				c1.969-1.969,5.151-1.969,7.119,0c1.969,1.964,1.969,5.151,0,7.119l-18.01,18.015C254.083,80.988,252.799,81.481,251.51,81.481z"
				/>
			<path fill="#7BA6E2" d="M251.509,83.999c-2.011,0-3.909-0.784-5.34-2.21c-1.426-1.426-2.213-3.324-2.213-5.34
				c0-2.016,0.787-3.914,2.213-5.342l18.011-18.015c2.867-2.862,7.833-2.857,10.679,0c1.426,1.423,2.213,3.321,2.213,5.337
				c0,2.016-0.787,3.914-2.213,5.342l-18.011,18.015C255.418,83.215,253.52,83.999,251.509,83.999z M269.519,55.911
				c-0.669,0-1.303,0.263-1.78,0.742l-18.011,18.013c-0.477,0.477-0.738,1.109-0.738,1.782c0,0.671,0.261,1.301,0.738,1.775
				c0.954,0.954,2.606,0.954,3.56,0l18.011-18.013c0.477-0.477,0.738-1.109,0.738-1.782c0-0.671-0.261-1.303-0.738-1.775
				C270.822,56.174,270.193,55.911,269.519,55.911z"/>
		</g>
	</g>
	<g>
		<g>
			<path fill="#7BA6E2" d="M58.225,274.76c-1.289,0-2.578-0.493-3.56-1.475c-1.969-1.969-1.969-5.151,0-7.119l18.01-18.01
				c1.969-1.969,5.151-1.969,7.119,0c1.969,1.969,1.969,5.151,0,7.119l-18.01,18.01C60.803,274.272,59.514,274.76,58.225,274.76z"/>
			<path fill="#7BA6E2" d="M58.226,277.279c-2.013,0-3.909-0.787-5.337-2.213c-1.431-1.431-2.218-3.329-2.218-5.34
				c0-2.016,0.787-3.914,2.215-5.34l18.011-18.011c1.423-1.426,3.319-2.218,5.337-2.218c0,0,0,0,0.002,0
				c2.016,0,3.914,0.787,5.342,2.218c2.938,2.94,2.94,7.729,0,10.679l-18.013,18.011C62.14,276.493,60.242,277.279,58.226,277.279z
				 M76.234,249.194c-0.669,0-1.301,0.266-1.775,0.742l-18.013,18.011c-0.477,0.477-0.74,1.106-0.74,1.78
				c0,0.669,0.263,1.303,0.742,1.78c0.949,0.954,2.603,0.954,3.557,0l18.011-18.011c0.978-0.983,0.981-2.581,0-3.56
				C77.537,249.46,76.905,249.194,76.234,249.194z"/>
		</g>
	</g>
	<g>
		<g>
			<path fill="#7BA6E2" d="M116.449,54.62c-1.979,0-3.852-1.173-4.652-3.112l-9.748-23.533c-1.062-2.568,0.156-5.513,2.724-6.581
				c2.578-1.062,5.513,0.156,6.581,2.724l9.748,23.533c1.062,2.568-0.156,5.513-2.724,6.581
				C117.738,54.494,117.088,54.62,116.449,54.62z"/>
			<path fill="#7BA6E2" d="M116.449,57.138c-3.071,0-5.809-1.834-6.98-4.671L99.724,28.94c-1.591-3.847,0.241-8.275,4.083-9.871
				c3.86-1.573,8.278,0.248,9.871,4.083l9.748,23.535c1.591,3.847-0.241,8.275-4.083,9.871
				C118.391,56.944,117.423,57.138,116.449,57.138z M106.694,23.531c-0.32,0-0.647,0.061-0.961,0.192
				c-1.276,0.529-1.888,2.006-1.357,3.292l9.748,23.53c0.511,1.246,1.923,1.908,3.302,1.357c1.269-0.526,1.881-2.004,1.35-3.289
				l-9.748-23.53C108.626,24.116,107.685,23.531,106.694,23.531z"/>
		</g>
	</g>
	<g>
		<g>
			<path fill="#7BA6E2" d="M221.049,307.15c-1.974,0-3.852-1.168-4.652-3.107l-9.748-23.533c-1.062-2.573,0.156-5.518,2.724-6.581
				c2.563-1.057,5.518,0.151,6.581,2.724l9.748,23.533c1.062,2.573-0.156,5.518-2.724,6.581
				C222.348,307.029,221.693,307.15,221.049,307.15z"/>
			<path fill="#7BA6E2" d="M221.048,309.667c-3.068,0-5.807-1.829-6.977-4.666l-9.75-23.527c-1.593-3.85,0.241-8.28,4.086-9.868
				c3.855-1.583,8.29,0.246,9.873,4.091l9.745,23.527c0.772,1.868,0.772,3.919,0,5.782c-0.772,1.863-2.222,3.314-4.091,4.086
				C223.04,309.47,222.061,309.667,221.048,309.667z M211.298,276.065c-0.325,0-0.654,0.064-0.969,0.192
				c-1.278,0.531-1.888,2.006-1.357,3.294l9.75,23.527c0.521,1.259,2.109,1.863,3.275,1.367c0.639-0.261,1.121-0.742,1.377-1.367
				c0.256-0.62,0.256-1.308,0-1.932l-9.745-23.527C213.231,276.65,212.291,276.065,211.298,276.065z"/>
		</g>
	</g>
	<g>
		<g>
			<path fill="#7BA6E2" d="M278.371,121.685c-1.974,0-3.852-1.173-4.652-3.112c-1.062-2.568,0.156-5.513,2.724-6.581l23.533-9.748
				c2.558-1.057,5.518,0.156,6.581,2.724s-0.156,5.513-2.724,6.581l-23.533,9.748C279.665,121.564,279.016,121.685,278.371,121.685z
				"/>
			<path fill="#7BA6E2" d="M278.37,124.202c-3.068,0-5.807-1.832-6.977-4.669c-1.593-3.843,0.241-8.268,4.081-9.866l23.537-9.748
				c1.859-0.767,3.909-0.767,5.777,0c1.868,0.772,3.324,2.225,4.096,4.088c1.593,3.843-0.241,8.268-4.081,9.866l-23.537,9.748
				C280.351,124.005,279.373,124.202,278.37,124.202z M301.897,104.382c-0.329,0-0.654,0.061-0.959,0.189l-23.532,9.748
				c-1.278,0.531-1.893,2.009-1.362,3.289c0.521,1.259,2.031,1.888,3.284,1.367l23.542-9.753c1.278-0.531,1.893-2.009,1.362-3.289
				c-0.256-0.62-0.742-1.101-1.367-1.357C302.551,104.446,302.221,104.382,301.897,104.382z"/>
		</g>
	</g>
	<g>
		<g>
			<path fill="#7BA6E2" d="M25.836,226.29c-1.979,0-3.852-1.168-4.652-3.107c-1.062-2.568,0.156-5.518,2.724-6.581l23.533-9.753
				c2.563-1.067,5.513,0.156,6.581,2.724c1.062,2.573-0.156,5.518-2.724,6.581l-23.533,9.753
				C27.135,226.169,26.48,226.29,25.836,226.29z"/>
			<path fill="#7BA6E2" d="M25.836,228.809c-3.071,0-5.809-1.829-6.98-4.666c-1.591-3.845,0.243-8.27,4.086-9.868l23.535-9.75
				c1.859-0.772,3.911-0.772,5.78,0c1.864,0.772,3.316,2.222,4.091,4.081c1.591,3.855-0.243,8.285-4.086,9.873l-23.535,9.755
				C27.805,228.617,26.831,228.809,25.836,228.809z M49.365,208.984c-0.325,0-0.649,0.064-0.959,0.192l-23.535,9.75
				c-1.281,0.531-1.893,2.011-1.362,3.294c0.519,1.249,2.033,1.883,3.289,1.362l23.535-9.755c1.281-0.531,1.891-2.006,1.362-3.294
				c-0.258-0.615-0.742-1.101-1.367-1.357C50.017,209.048,49.692,208.984,49.365,208.984z"/>
		</g>
	</g>
	<g>
		<g>
			<path fill="#7BA6E2" d="M49.364,121.685c-0.639,0-1.294-0.126-1.923-0.388l-23.533-9.748c-2.568-1.062-3.786-4.008-2.724-6.581
				s4.003-3.786,6.581-2.724l23.533,9.748c2.568,1.062,3.786,4.008,2.724,6.581C53.216,120.517,51.343,121.685,49.364,121.685z"/>
			<path fill="#7BA6E2" d="M49.363,124.202c-0.993,0-1.967-0.197-2.894-0.583l-23.525-9.745c-3.843-1.588-5.677-6.016-4.086-9.866
				c1.586-3.843,6.013-5.677,9.863-4.091l23.54,9.75c3.843,1.591,5.677,6.016,4.086,9.866
				C55.172,122.37,52.431,124.202,49.363,124.202z M25.838,104.38c-0.988,0-1.927,0.585-2.326,1.551
				c-0.533,1.286,0.076,2.761,1.357,3.292l23.535,9.748c1.305,0.538,2.773-0.116,3.292-1.362c0.529-1.283-0.081-2.758-1.362-3.289
				l-23.535-9.748C26.485,104.441,26.16,104.38,25.838,104.38z"/>
		</g>
	</g>
	<g>
		<g>
			<path fill="#7BA6E2" d="M301.904,226.29c-0.644,0-1.299-0.121-1.928-0.383l-23.533-9.753c-2.568-1.062-3.786-4.008-2.724-6.581
				c1.062-2.568,4.023-3.781,6.581-2.724l23.533,9.753c2.568,1.062,3.786,4.013,2.724,6.581
				C305.751,225.121,303.873,226.29,301.904,226.29z"/>
			<path fill="#7BA6E2" d="M301.902,228.809c-0.998,0-1.967-0.192-2.891-0.575l-23.532-9.755c-3.845-1.588-5.679-6.018-4.086-9.863
				c1.588-3.845,6.028-5.679,9.868-4.091l23.537,9.75c3.845,1.598,5.679,6.028,4.086,9.873
				C307.704,226.98,304.965,228.809,301.902,228.809z M278.374,208.984c-0.988,0-1.927,0.585-2.331,1.554
				c-0.531,1.283,0.079,2.758,1.362,3.289l23.532,9.755c1.239,0.516,2.773-0.108,3.294-1.367c0.531-1.278-0.079-2.758-1.367-3.289
				l-23.527-9.75C279.023,209.048,278.699,208.984,278.374,208.984z"/>
		</g>
	</g>
	<g>
		<g>
			<path fill="#7BA6E2" d="M211.301,54.62c-0.644,0-1.299-0.126-1.928-0.388c-2.568-1.062-3.786-4.008-2.724-6.581l9.748-23.533
				c1.062-2.573,4.028-3.781,6.581-2.724c2.568,1.062,3.786,4.008,2.724,6.581l-9.748,23.533
				C215.153,53.447,213.275,54.62,211.301,54.62z"/>
			<path fill="#7BA6E2" d="M211.303,57.138c-0.993,0-1.967-0.194-2.896-0.58c-3.84-1.591-5.674-6.016-4.086-9.868l9.75-23.535
				c0.767-1.856,2.213-3.307,4.081-4.081c1.863-0.777,3.924-0.777,5.787-0.005c3.84,1.588,5.679,6.013,4.086,9.868l-9.745,23.535
				C217.11,55.307,214.371,57.138,211.303,57.138z M221.053,23.529c-0.329,0-0.659,0.066-0.974,0.197
				c-0.62,0.258-1.101,0.738-1.357,1.355l-9.75,23.535c-0.531,1.283,0.079,2.761,1.362,3.292c1.283,0.526,2.778-0.113,3.294-1.36
				l9.745-23.535c0.531-1.283-0.079-2.763-1.357-3.292C221.707,23.593,221.378,23.529,221.053,23.529z"/>
		</g>
	</g>
	<g>
		<g>
			<path fill="#7BA6E2" d="M106.696,307.15c-0.639,0-1.294-0.121-1.923-0.383c-2.568-1.062-3.786-4.008-2.724-6.581l9.748-23.533
				c1.062-2.568,3.998-3.786,6.581-2.724c2.568,1.062,3.786,4.008,2.724,6.581l-9.748,23.533
				C110.543,305.977,108.67,307.15,106.696,307.15z"/>
			<path fill="#7BA6E2" d="M106.696,309.667c-1.01,0-1.986-0.197-2.901-0.58c-3.828-1.583-5.662-6.008-4.071-9.858l9.748-23.537
				c1.583-3.835,6.008-5.679,9.863-4.086c3.847,1.588,5.681,6.013,4.091,9.863l-9.748,23.537
				C112.491,307.843,109.752,309.667,106.696,309.667z M116.454,276.065c-0.991,0-1.93,0.585-2.331,1.549l-9.748,23.537
				c-0.531,1.283,0.079,2.758,1.36,3.289c1.261,0.516,2.771-0.108,3.294-1.372l9.745-23.522c0.531-1.283-0.079-2.758-1.36-3.289
				C117.101,276.129,116.774,276.065,116.454,276.065z"/>
		</g>
	</g>
</g>
</svg>
