<?xml version="1.0" encoding="iso-8859-1"?>
<!-- Generator: Adobe Illustrator 19.0.0, SVG Export Plug-In . SVG Version: 6.00 Build 0)  -->
<svg version="1.1" id="Capa_1" xmlns="http://www.w3.org/2000/svg" xmlns:xlink="http://www.w3.org/1999/xlink" x="0px" y="0px"
	 viewBox="0 0 512 512" style="enable-background:new 0 0 512 512;" xml:space="preserve">
<circle style="fill:#91E0E8;" cx="256" cy="256" r="245"/>
<circle style="fill:#FE3745;" cx="256" cy="256" r="221.54"/>
<path style="fill:#EA2A3D;" d="M51.471,256c0-119.502,94.624-216.887,213.033-221.358c-2.823-0.107-5.655-0.178-8.503-0.178
	C133.648,34.464,34.464,133.649,34.464,256S133.648,477.536,256,477.536c2.849,0,5.681-0.071,8.503-0.178
	C146.095,472.887,51.471,375.502,51.471,256z"/>
<path style="fill:#B7092B;" d="M256,485.036c-61.178,0-118.694-23.824-161.953-67.083S26.964,317.178,26.964,256
	S50.788,137.306,94.047,94.047S194.822,26.964,256,26.964s118.694,23.824,161.953,67.083S485.036,194.822,485.036,256
	s-23.824,118.694-67.083,161.953S317.178,485.036,256,485.036z M256,41.964c-57.171,0-110.92,22.264-151.347,62.689
	C64.227,145.08,41.964,198.829,41.964,256s22.264,110.92,62.689,151.346c40.426,40.426,94.175,62.69,151.347,62.69
	s110.92-22.264,151.347-62.69c40.426-40.426,62.689-94.175,62.689-151.346s-22.264-110.92-62.689-151.347
	C366.92,64.228,313.171,41.964,256,41.964z"/>
<path style="fill:#FE3745;" d="M307.456,75.526c11.304,6.639,18.914,18.918,18.914,32.949v80.268c0,38.802-31.568,70.37-70.37,70.37
	s-70.37-31.568-70.37-70.37v-85.476c0-8.52,2.176-16.54,5.999-23.537C119.77,106.053,68.353,175.135,68.353,256
	c0,103.469,84.178,187.647,187.647,187.647S443.647,359.469,443.647,256C443.647,170.367,385.988,97.95,307.456,75.526z"/>
<g>
	<path style="fill:#B7092B;" d="M259.999,60.904c5.034,2.994,9.565,6.893,13.345,11.618c0.194,0.243,0.483,0.375,0.781,0.375
		c0.12,0,0.242-0.021,0.358-0.067c4.393-1.689,9-2.546,13.696-2.546c13.393,0,25.189,6.936,32.009,17.398
		C387.919,113.6,436.147,179.268,436.147,256c0,99.333-80.814,180.147-180.147,180.147S75.853,355.333,75.853,256
		c0-75.15,46.261-139.689,111.795-166.665c2.251-7.62,6.299-14.472,11.652-20.072C119.264,93.612,60.853,168.108,60.853,256
		c0,107.604,87.543,195.147,195.147,195.147S451.147,363.604,451.147,256C451.147,149.732,365.764,63.042,259.999,60.904z"/>
	<path style="fill:#B7092B;" d="M263.5,63.131V7.5c0-4.142-3.358-7.5-7.5-7.5s-7.5,3.358-7.5,7.5v48.416
		C253.934,57.466,258.994,59.922,263.5,63.131z"/>
	<path style="fill:#B7092B;" d="M256,402.254c-2.515,0-5.016-0.064-7.5-0.19V504.5c0,4.142,3.358,7.5,7.5,7.5s7.5-3.358,7.5-7.5
		V402.064C261.016,402.19,258.515,402.254,256,402.254z"/>
	<path style="fill:#B7092B;" d="M109.747,256c0-2.515,0.064-5.016,0.19-7.5H7.5c-4.142,0-7.5,3.358-7.5,7.5s3.358,7.5,7.5,7.5
		h102.436C109.81,261.016,109.747,258.515,109.747,256z"/>
	<path style="fill:#B7092B;" d="M504.5,248.5H402.064c0.126,2.484,0.19,4.985,0.19,7.5c0,2.515-0.064,5.016-0.19,7.5H504.5
		c4.142,0,7.5-3.358,7.5-7.5S508.642,248.5,504.5,248.5z"/>
</g>
<path style="fill:#91E0E8;" d="M326.37,127.824v60.919c0,38.802-31.568,70.37-70.37,70.37s-70.37-31.568-70.37-70.37v-60.919
	c-45.194,24.911-75.883,73.024-75.883,128.176c0,80.645,65.609,146.254,146.253,146.254S402.254,336.645,402.254,256
	C402.254,200.849,371.564,152.735,326.37,127.824z"/>
<path style="fill:#5DC1D8;" d="M132.422,256c0-45.324,20.737-85.882,53.208-112.727v-15.448
	c-45.194,24.911-75.883,73.024-75.883,128.176c0,80.645,65.609,146.254,146.253,146.254c3.815,0,7.596-0.148,11.338-0.436
	C191.971,396.012,132.422,332.83,132.422,256z"/>
<path style="fill:#293D7C;" d="M353.04,268.683h-46.667l0.335,1.212c0.485,1.757-0.275,4.243-1.662,5.427l-24.897,21.268
	c-0.565,0.483-1.303,0.749-2.077,0.749h-0.001c-0.897,0-1.75-0.357-2.341-0.981l-16.253-17.143c-0.923-0.974-2.158-1.51-3.477-1.51
	c-1.32,0-2.555,0.536-3.478,1.51l-16.253,17.143c-0.591,0.624-1.444,0.981-2.341,0.981c-0.774,0-1.512-0.266-2.077-0.749
	l-24.896-21.268c-1.386-1.185-2.147-3.67-1.662-5.427l0.335-1.212H158.96c-8.25,0-15,6.75-15,15v66.21
	c26.85,31.987,67.108,52.361,112.041,52.361c44.932,0,85.19-20.374,112.04-52.36v-66.21
	C368.04,275.433,361.29,268.683,353.04,268.683z"/>
<path style="fill:#1A2B63;" d="M160.966,283.683c0-8.25,6.75-15,15-15h-17.007c-8.25,0-15,6.75-15,15v66.21
	c5.188,6.18,10.881,11.921,17.007,17.171V283.683z"/>
<path style="fill:#D9EAFC;" d="M256,318.18c-1.97,0-3.91-0.8-5.3-2.2c-1.4-1.39-2.2-3.33-2.2-5.3s0.8-3.91,2.2-5.3
	c1.39-1.4,3.32-2.2,5.3-2.2c1.97,0,3.91,0.8,5.3,2.2c1.4,1.39,2.2,3.33,2.2,5.3s-0.8,3.91-2.2,5.3
	C259.9,317.38,257.97,318.18,256,318.18z"/>
<path style="fill:#AEC1ED;" d="M256.369,315.98c-1.4-1.39-2.2-3.33-2.2-5.3s0.8-3.91,2.2-5.3c0.704-0.709,1.547-1.262,2.464-1.638
	c-0.895-0.366-1.86-0.563-2.832-0.563c-1.98,0-3.91,0.8-5.3,2.2c-1.4,1.39-2.2,3.33-2.2,5.3s0.8,3.91,2.2,5.3
	c1.39,1.4,3.33,2.2,5.3,2.2c0.974,0,1.938-0.197,2.832-0.563C257.915,317.241,257.071,316.688,256.369,315.98z"/>
<path style="fill:#D9EAFC;" d="M256,343.5c-1.98,0-3.91-0.8-5.3-2.2c-1.4-1.39-2.2-3.33-2.2-5.3s0.8-3.91,2.2-5.3
	c1.39-1.4,3.32-2.2,5.3-2.2c1.97,0,3.91,0.8,5.3,2.2c1.4,1.39,2.2,3.33,2.2,5.3s-0.8,3.91-2.2,5.3
	C259.91,342.7,257.97,343.5,256,343.5z"/>
<path style="fill:#AEC1ED;" d="M256.369,341.3c-1.4-1.39-2.2-3.33-2.2-5.3s0.8-3.91,2.2-5.3c0.704-0.709,1.547-1.262,2.464-1.638
	c-0.895-0.366-1.86-0.563-2.832-0.563c-1.98,0-3.91,0.8-5.3,2.2c-1.4,1.39-2.2,3.33-2.2,5.3s0.8,3.91,2.2,5.3
	c1.39,1.4,3.33,2.2,5.3,2.2c0.974,0,1.938-0.197,2.832-0.564C257.915,342.561,257.071,342.008,256.369,341.3z"/>
<path style="fill:#D9EAFC;" d="M300.394,243.293c-12.119,9.881-27.574,15.82-44.394,15.82s-32.274-5.938-44.394-15.82l-7.277,26.336
	c-0.586,2.121,0.303,5.024,1.976,6.454l24.896,21.268c1.673,1.429,4.28,1.292,5.793-0.305l16.253-17.143
	c1.514-1.597,3.99-1.597,5.504,0l16.253,17.143c1.514,1.597,4.121,1.734,5.793,0.305l24.897-21.268
	c1.673-1.429,2.562-4.333,1.976-6.454L300.394,243.293z"/>
<path style="fill:#AEC1ED;" d="M217.643,273.248c-1.673-1.429-2.562-4.333-1.976-6.454l4.796-17.355
	c-3.109-1.829-6.075-3.878-8.857-6.146l-7.277,26.336c-0.586,2.121,0.303,5.024,1.976,6.454l24.896,21.268
	c1.673,1.429,4.28,1.292,5.793-0.305l3.806-4.015L217.643,273.248z"/>
<path style="fill:#EF8318;" d="M288.18,69.285c-5.331,0-10.411,1.069-15.043,2.996c5.141,6.334,8.745,13.96,10.237,22.311
	c25.83,5.113,43.996,19.153,43.996,48.87v-34.987C327.37,86.831,309.824,69.285,288.18,69.285z"/>
<path style="fill:#FF9518;" d="M256,92.201c10.103,0,19.709,0.786,28.418,2.607c-4.023-23.726-24.662-41.796-49.533-41.796
	c-27.756,0-50.256,22.499-50.256,50.255v40.195C184.63,104.045,216.583,92.201,256,92.201z"/>
<path style="fill:#EF8318;" d="M198.802,103.267c0-25.357,18.783-46.316,43.193-49.752c-2.323-0.329-4.695-0.504-7.109-0.504
	c-27.756,0-50.256,22.499-50.256,50.255v40.195c0-16.009,5.271-27.47,14.172-35.437V103.267z"/>
<path style="fill:#FFC987;" d="M185.63,188.743v-32.038h-2.184c-12.822,0-23.217,10.395-23.217,23.217
	c0,12.823,10.395,23.217,23.217,23.217h3.669C186.145,198.49,185.63,193.676,185.63,188.743z"/>
<path style="fill:#FF9F60;" d="M168.733,179.921c0-10.63,7.147-19.586,16.897-22.339v-0.878h-2.184
	c-12.822,0-23.217,10.395-23.217,23.217c0,12.823,10.395,23.217,23.217,23.217h3.669c-0.037-0.175-0.062-0.355-0.097-0.53
	C176.566,200.348,168.733,191.052,168.733,179.921z"/>
<path style="fill:#FFC987;" d="M328.554,156.705h-2.184v32.038c0,4.933-0.516,9.747-1.486,14.396h3.669
	c12.822,0,23.217-10.395,23.217-23.217C351.77,167.099,341.376,156.705,328.554,156.705z"/>
<path style="fill:#FFE2B8;" d="M327.37,188.743c0,39.417-31.953,71.37-71.37,71.37l0,0c-39.417,0-71.37-31.953-71.37-71.37v-48.115
	c0-39.417,31.953-51.261,71.37-51.261l0,0c39.417,0,71.37,11.844,71.37,51.261V188.743z"/>
<path style="fill:#FFC987;" d="M198.802,188.743v-48.115c0-37.025,28.194-49.72,64.284-51.125c-2.331-0.09-4.694-0.136-7.086-0.136
	c-39.417,0-71.37,11.844-71.37,51.261v48.115c0,39.417,31.953,71.37,71.37,71.37c2.392,0,4.755-0.123,7.086-0.352
	C226.997,256.203,198.802,225.768,198.802,188.743z"/>
<g>
	<path style="fill:#A53535;" d="M222,174.5c-4.142,0-7.5-3.358-7.5-7.5v-13c0-4.142,3.358-7.5,7.5-7.5s7.5,3.358,7.5,7.5v13
		C229.5,171.142,226.142,174.5,222,174.5z"/>
	<path style="fill:#A53535;" d="M290,174.5c-4.142,0-7.5-3.358-7.5-7.5v-13c0-4.142,3.358-7.5,7.5-7.5s7.5,3.358,7.5,7.5v13
		C297.5,171.142,294.142,174.5,290,174.5z"/>
	<path style="fill:#A53535;" d="M264,190.667h-9c-6.341,0-11.5-5.159-11.5-11.5v-21.333c0-4.142,3.358-7.5,7.5-7.5
		s7.5,3.358,7.5,7.5v17.833h5.5c4.142,0,7.5,3.358,7.5,7.5C271.5,187.309,268.142,190.667,264,190.667z"/>
	<path style="fill:#A53535;" d="M256,233.5c-17.645,0-32-14.355-32-32c0-4.142,3.358-7.5,7.5-7.5s7.5,3.358,7.5,7.5
		c0,9.374,7.626,17,17,17s17-7.626,17-17c0-4.142,3.358-7.5,7.5-7.5s7.5,3.358,7.5,7.5C288,219.145,273.645,233.5,256,233.5z"/>
</g>
<path style="fill:#FFFFFF;" d="M327.37,119.849v17.203c40.341,24.296,67.384,68.521,67.384,118.948
	c0,76.509-62.245,138.754-138.754,138.754S117.247,332.509,117.247,256c0-50.427,27.043-94.651,67.383-118.948v-17.203
	c-48.935,25.756-82.383,77.117-82.383,136.151c0,84.78,68.974,153.754,153.753,153.754c84.78,0,153.754-68.974,153.754-153.754
	C409.754,196.966,376.306,145.605,327.37,119.849z"/>
<g>
</g>
<g>
</g>
<g>
</g>
<g>
</g>
<g>
</g>
<g>
</g>
<g>
</g>
<g>
</g>
<g>
</g>
<g>
</g>
<g>
</g>
<g>
</g>
<g>
</g>
<g>
</g>
<g>
</g>
</svg>
