<?xml version="1.0" encoding="iso-8859-1"?>
<!-- Generator: Adobe Illustrator 19.0.0, SVG Export Plug-In . SVG Version: 6.00 Build 0)  -->
<svg version="1.1" id="Capa_1" xmlns="http://www.w3.org/2000/svg" xmlns:xlink="http://www.w3.org/1999/xlink" x="0px" y="0px"
	 viewBox="0 0 512 512" style="enable-background:new 0 0 512 512;" xml:space="preserve">
<circle style="fill:#02AF8E;" cx="251.381" cy="267" r="245"/>
<circle style="fill:#FFFFFF;" cx="250.411" cy="263.49" r="198.62"/>
<path style="fill:#445EA0;" d="M370.784,273.047c-5.275,0-9.553-4.278-9.553-9.554c0-23.982-7.66-46.206-20.657-64.362l-0.001,0.001
	c-12.515-17.481-29.981-31.186-50.329-39.052l-0.001,0.001c-12.367-4.781-25.799-7.409-39.833-7.409
	c-13.98,0-27.355,2.608-39.681,7.353l-0.002-0.005c-20.38,7.844-37.877,21.542-50.418,39.025c0,0,0,0.001,0.001,0.001
	c-13.034,18.171-20.717,40.428-20.717,64.446c0,5.276-4.278,9.554-9.558,9.554H87.333c-0.181-3.163-0.286-6.347-0.286-9.554
	c0,90.223,73.141,163.362,163.363,163.362c87.015,0,158.128-68.033,163.077-153.808L370.784,273.047L370.784,273.047z"/>
<g>
	<path style="fill:#FF9518;" d="M160.31,199.046l-41.732-32.02c-0.001-0.001-0.002-0.002-0.003-0.003
		c-19.816,27.034-31.527,60.382-31.527,96.47c0,3.207,0.105,6.392,0.286,9.554h42.702c5.279,0,9.558-4.278,9.558-9.554
		C139.593,239.475,147.277,217.218,160.31,199.046C160.31,199.047,160.31,199.046,160.31,199.046z"/>
	<path style="fill:#FF9518;" d="M382.309,167.109c-0.001,0-0.001,0.001-0.001,0.001l-41.733,32.022
		c12.997,18.156,20.657,40.38,20.657,64.362c0,5.276,4.277,9.554,9.553,9.554h42.703c0.182-3.163,0.285-6.347,0.285-9.554
		C413.772,227.443,402.087,194.128,382.309,167.109z"/>
</g>
<g>
	<path style="fill:#FFAF10;" d="M192.593,110.671c-0.001-0.002-0.001-0.004-0.002-0.005c-29.819,11.291-55.471,31.058-74.014,56.361
		l41.732,32.02c12.541-17.483,30.038-31.182,50.418-39.025L192.593,110.671z"/>
	<path style="fill:#FFAF10;" d="M308.381,110.724c-0.001,0.002-0.002,0.004-0.003,0.006l-18.134,49.351
		c20.348,7.866,37.814,21.57,50.329,39.052l41.734-32.022C363.788,141.809,338.168,122.036,308.381,110.724z"/>
</g>
<path style="fill:#FFD00D;" d="M308.378,110.73c-18.018-6.841-37.553-10.597-57.967-10.597c-20.357,0-39.842,3.736-57.817,10.539
	l18.137,49.354c12.326-4.745,25.701-7.353,39.681-7.353c14.034,0,27.465,2.628,39.833,7.409L308.378,110.73z"/>
<path style="fill:#D9EAFC;" d="M71.636,263.493c0-106.363,83.613-193.198,188.696-198.368c-3.287-0.162-6.594-0.247-9.921-0.247
	c-109.692,0-198.617,88.925-198.617,198.615c0,109.692,88.925,198.615,198.617,198.615c3.327,0,6.634-0.086,9.921-0.247
	C155.249,456.691,71.636,369.858,71.636,263.493z"/>
<path style="fill:#293D7C;" d="M107.176,273.047H87.332c4.948,85.775,76.064,153.808,163.078,153.808
	c3.333,0,6.638-0.112,9.921-0.309C177.891,421.607,111.934,355.537,107.176,273.047z"/>
<path style="fill:#FF9518;" d="M315.577,270.993c-4.143,0-7.5-3.358-7.5-7.5c0-31.798-25.869-57.669-57.667-57.669
	c-31.799,0-57.669,25.87-57.669,57.669c0,4.142-3.358,7.5-7.5,7.5s-7.5-3.358-7.5-7.5c0-40.069,32.599-72.669,72.669-72.669
	c40.069,0,72.667,32.599,72.667,72.669C323.077,267.635,319.72,270.993,315.577,270.993z"/>
<path style="fill:#91E0E8;" d="M226.419,358.851c0,1.65-1.35,3-3,3h-30.221c-1.65,0-3-1.35-3-3v-30.218c0-1.65,1.35-3,3-3h30.221
	c1.65,0,3,1.35,3,3V358.851z"/>
<path id="SVGCleanerId_0" style="fill:#91E0E8;" d="M268.518,358.851c0,1.65-1.35,3-3,3h-30.217c-1.65,0-3-1.35-3-3v-30.218
	c0-1.65,1.35-3,3-3h30.217c1.65,0,3,1.35,3,3V358.851z"/>
<path id="SVGCleanerId_1" style="fill:#FFFFFF;" d="M310.62,358.851c0,1.65-1.35,3-3,3h-30.217c-1.65,0-3-1.35-3-3v-30.218
	c0-1.65,1.35-3,3-3h30.217c1.65,0,3,1.35,3,3V358.851z"/>
<path style="fill:#5DC1D8;" d="M226.419,358.851c0,1.65-1.35,3-3,3h-30.221c-1.65,0-3-1.35-3-3v-30.218c0-1.65,1.35-3,3-3h30.221
	c1.65,0,3,1.35,3,3V358.851z"/>
<g>
	<path id="SVGCleanerId_0_1_" style="fill:#91E0E8;" d="M268.518,358.851c0,1.65-1.35,3-3,3h-30.217c-1.65,0-3-1.35-3-3v-30.218
		c0-1.65,1.35-3,3-3h30.217c1.65,0,3,1.35,3,3V358.851z"/>
</g>
<g>
	<path id="SVGCleanerId_1_1_" style="fill:#FFFFFF;" d="M310.62,358.851c0,1.65-1.35,3-3,3h-30.217c-1.65,0-3-1.35-3-3v-30.218
		c0-1.65,1.35-3,3-3h30.217c1.65,0,3,1.35,3,3V358.851z"/>
</g>
<path style="fill:#FE3745;" d="M226.123,274.934c-6.308-13.391-0.546-29.419,12.847-35.728c0.736-0.346,1.494-0.661,2.318-0.96
	c0.057-0.02,0.11-0.037,0.166-0.05l132.179-34.823c0.893-0.235,1.818,0.2,2.213,1.034c0.391,0.832,0.135,1.829-0.613,2.363
	l-111.022,79.738c-0.047,0.035-0.094,0.066-0.145,0.095c-0.758,0.446-1.484,0.83-2.219,1.178
	C248.459,294.09,232.433,288.328,226.123,274.934z"/>
<g>
	<path style="fill:#B7092B;" d="M238.97,247.049c0.736-0.346,1.494-0.661,2.318-0.96c0.057-0.02,0.11-0.037,0.166-0.05
		l124.931-32.913l8.848-6.355c0.748-0.534,1.004-1.531,0.613-2.363c-0.395-0.834-1.32-1.269-2.213-1.034l-132.179,34.823
		c-0.056,0.014-0.109,0.031-0.166,0.05c-0.824,0.299-1.582,0.614-2.318,0.96c-10.959,5.163-16.804,16.833-15.111,28.242
		C225.131,258.852,230.535,251.022,238.97,247.049z"/>
	<circle style="fill:#B7092B;" cx="250.411" cy="263.49" r="13.472"/>
</g>
<path style="fill:#FF9518;" d="M379.632,99.894c-2.842,0-5.147-2.304-5.147-5.146V54.866h-17.232c-1.959,0-3.748-1.113-4.615-2.871
	c-0.867-1.757-0.66-3.855,0.533-5.409L387.4,2.012C388.372,0.744,389.882,0,391.479,0l0,0c1.6,0,3.107,0.744,4.082,2.012
	l34.227,44.574c1.193,1.554,1.4,3.651,0.533,5.409c-0.865,1.758-2.654,2.871-4.615,2.871h-17.23v39.882
	c0,2.842-2.303,5.146-5.147,5.146H379.632z"/>
<path style="fill:#EF8318;" d="M385.735,48.616c0-2.761-2.238-5-5-5h-25.284l-2.28,2.97c-1.193,1.554-1.4,3.652-0.533,5.409
	c0.867,1.758,2.656,2.871,4.615,2.871h17.232v39.882c0,2.842,2.305,5.146,5.147,5.146h6.103V48.616z"/>
<path style="fill:#FF9518;" d="M454.395,176.369c-2.842,0-5.146-2.304-5.146-5.146V131.34h-17.23c-1.961,0-3.75-1.113-4.615-2.871
	c-0.867-1.757-0.66-3.855,0.533-5.409l34.227-44.573c0.975-1.269,2.482-2.012,4.082-2.012s3.107,0.743,4.082,2.012l34.227,44.573
	c1.193,1.554,1.4,3.652,0.533,5.409c-0.865,1.758-2.654,2.871-4.615,2.871h-17.232v39.883c0,2.842-2.303,5.146-5.147,5.146
	L454.395,176.369L454.395,176.369z"/>
<path style="fill:#EF8318;" d="M460.501,125.09c0-2.761-2.238-5-5-5h-25.284l-2.28,2.97c-1.193,1.554-1.4,3.652-0.533,5.409
	c0.867,1.758,2.656,2.871,4.615,2.871h17.232v39.882c0,2.842,2.305,5.146,5.147,5.146h6.103V125.09z"/>
<g>
</g>
<g>
</g>
<g>
</g>
<g>
</g>
<g>
</g>
<g>
</g>
<g>
</g>
<g>
</g>
<g>
</g>
<g>
</g>
<g>
</g>
<g>
</g>
<g>
</g>
<g>
</g>
<g>
</g>
</svg>
